<svg xmlns="http://www.w3.org/2000/svg" viewBox="0 0 800 400">
    <!-- Dataset -->
    <rect x="50" y="50" width="150" height="200" rx="10" fill="#e3f2fd" stroke="#1976d2" stroke-width="2"/>
    <text x="125" y="150" text-anchor="middle" font-family="Arial" font-size="16">Dataset</text>
    
    <!-- DataLoader Process -->
    <rect x="300" y="75" width="200" height="150" rx="10" fill="#f3e5f5" stroke="#7b1fa2" stroke-width="2"/>
    <text x="400" y="125" text-anchor="middle" font-family="Arial" font-size="16">DataLoader</text>
    <text x="400" y="155" text-anchor="middle" font-family="Arial" font-size="12">• Shuffling</text>
    <text x="400" y="175" text-anchor="middle" font-family="Arial" font-size="12">• Batching</text>
    <text x="400" y="195" text-anchor="middle" font-family="Arial" font-size="12">• Parallel Loading</text>
    
    <!-- Batches -->
    <rect x="600" y="50" width="150" height="50" rx="5" fill="#e8f5e9" stroke="#388e3c" stroke-width="2"/>
    <text x="675" y="80" text-anchor="middle" font-family="Arial" font-size="14">Batch 1</text>
    
    <rect x="600" y="125" width="150" height="50" rx="5" fill="#e8f5e9" stroke="#388e3c" stroke-width="2"/>
    <text x="675" y="155" text-anchor="middle" font-family="Arial" font-size="14">Batch 2</text>
    
    <rect x="600" y="200" width="150" height="50" rx="5" fill="#e8f5e9" stroke="#388e3c" stroke-width="2"/>
    <text x="675" y="230" text-anchor="middle" font-family="Arial" font-size="14">Batch 3</text>
    
    <!-- Arrows -->
    <path d="M200 150 L300 150" fill="none" stroke="#000" stroke-width="2" marker-end="url(#arrowhead)"/>
    <path d="M500 150 L600 75" fill="none" stroke="#000" stroke-width="2" marker-end="url(#arrowhead)"/>
    <path d="M500 150 L600 150" fill="none" stroke="#000" stroke-width="2" marker-end="url(#arrowhead)"/>
    <path d="M500 150 L600 225" fill="none" stroke="#000" stroke-width="2" marker-end="url(#arrowhead)"/>
    
    <!-- Arrow marker definition -->
    <defs>
        <marker id="arrowhead" markerWidth="10" markerHeight="7" refX="9" refY="3.5" orient="auto">
            <polygon points="0 0, 10 3.5, 0 7" fill="#000"/>
        </marker>
    </defs>
</svg>
